<svg xmlns="http://www.w3.org/2000/svg" width="1280" height="760" viewBox="0 0 1280 760" role="img" aria-labelledby="title desc">
  <title id="title">Heterogeneous graph workflow: training cache and direct DST reconstruction</title>
  <desc id="desc">DST files are converted into a shared GraphEvent stream. The training lane writes HDF5 cache shards and trains a checkpoint. The direct reconstruction lane uses the same GraphEvent schema and the checkpoint to produce CSV output without writing HDF5.</desc>
  <defs>
    <marker id="arrow" markerWidth="10" markerHeight="8" refX="9" refY="4" orient="auto">
      <path d="M0,0 L10,4 L0,8 z" fill="#263238"/>
    </marker>
    <style>
      .title { font: 700 24px -apple-system, BlinkMacSystemFont, "Segoe UI", sans-serif; fill: #17212b; }
      .label { font: 700 17px -apple-system, BlinkMacSystemFont, "Segoe UI", sans-serif; fill: #263238; }
      .box-title { font: 700 14px -apple-system, BlinkMacSystemFont, "Segoe UI", sans-serif; fill: #17212b; }
      .text { font: 13px -apple-system, BlinkMacSystemFont, "Segoe UI", sans-serif; fill: #263238; }
      .tiny { font: 12px -apple-system, BlinkMacSystemFont, "Segoe UI", sans-serif; fill: #455a64; }
      .lane { fill: #ffffff; stroke: #b0bec5; stroke-width: 1.2; rx: 10; ry: 10; }
      .shared { fill: #eef7f5; }
      .train { fill: #fff8e1; }
      .direct { fill: #f7f1fb; }
      .box { fill: #ffffff; stroke: #455a64; stroke-width: 1.5; rx: 7; ry: 7; }
      .graph { fill: #f8fbff; stroke: #607d8b; }
      .cache { fill: #fff4cc; stroke: #8a6d1d; }
      .model { fill: #e8f0fe; stroke: #334155; }
      .output { fill: #fff7fb; stroke: #4a3f55; }
      .flow { stroke: #263238; stroke-width: 2.2; fill: none; marker-end: url(#arrow); }
      .soft { stroke: #607d8b; stroke-width: 1.6; stroke-dasharray: 6 5; fill: none; marker-end: url(#arrow); }
    </style>
  </defs>

  <rect x="0" y="0" width="1280" height="760" fill="#ffffff"/>
  <text x="40" y="42" class="title">Heterogeneous graph workflow: training cache and direct DST reconstruction</text>

  <rect x="50" y="75" width="1180" height="170" class="lane shared"/>
  <text x="78" y="106" class="label">Shared graph construction</text>

  <rect x="80" y="128" width="155" height="64" class="box"/>
  <text x="112" y="154" class="box-title">DST files</text>
  <text x="112" y="176" class="text">data / MC banks</text>

  <rect x="305" y="116" width="210" height="88" class="box graph"/>
  <text x="330" y="144" class="box-title">dstio.tale.graph</text>
  <text x="330" y="168" class="text">Ising annotations</text>
  <text x="330" y="188" class="text">all candidates kept</text>

  <rect x="590" y="116" width="250" height="88" class="box graph"/>
  <text x="620" y="144" class="box-title">GraphEvent stream</text>
  <text x="620" y="168" class="text">hetero detector / pulse graph</text>
  <text x="620" y="188" class="text">same schema for train and inference</text>

  <rect x="945" y="116" width="185" height="88" class="box"/>
  <text x="972" y="144" class="box-title">Graph definition</text>
  <text x="972" y="168" class="text">tale_sd_hetero_ising</text>
  <text x="972" y="188" class="text">pulse_detector_graph_v1</text>

  <path d="M235 160 H305" class="flow"/>
  <path d="M515 160 H590" class="flow"/>
  <path d="M840 160 H945" class="flow"/>

  <path d="M715 204 V236" class="soft"/>
  <text x="740" y="236" class="tiny">the same GraphEvent schema feeds both lanes below</text>

  <rect x="50" y="285" width="1180" height="175" class="lane train"/>
  <text x="78" y="320" class="label">HDF5 training cache path</text>

  <rect x="80" y="352" width="150" height="64" class="box graph"/>
  <text x="105" y="378" class="box-title">GraphEvent</text>
  <text x="105" y="400" class="text">stream input</text>

  <rect x="280" y="352" width="150" height="64" class="box cache"/>
  <text x="307" y="378" class="box-title">export-hetero</text>
  <text x="307" y="400" class="text">write HDF5 cache</text>

  <rect x="480" y="352" width="150" height="64" class="box cache"/>
  <text x="515" y="378" class="box-title">HDF5 shards</text>
  <text x="515" y="400" class="text">training cache</text>

  <rect x="670" y="352" width="150" height="64" class="box model"/>
  <text x="704" y="378" class="box-title">train-hetero</text>
  <text x="704" y="400" class="text">fit scalers</text>

  <rect x="850" y="352" width="150" height="64" class="box model"/>
  <text x="885" y="378" class="box-title">checkpoint</text>
  <text x="885" y="400" class="text">model + scalers</text>

  <path d="M230 384 H280" class="flow"/>
  <path d="M430 384 H480" class="flow"/>
  <path d="M630 384 H670" class="flow"/>
  <path d="M820 384 H850" class="flow"/>

  <rect x="50" y="515" width="1180" height="150" class="lane direct"/>
  <text x="78" y="550" class="label">Direct DST reconstruction path</text>

  <rect x="80" y="586" width="150" height="64" class="box graph"/>
  <text x="105" y="612" class="box-title">GraphEvent</text>
  <text x="105" y="634" class="text">stream input</text>

  <rect x="330" y="586" width="170" height="64" class="box graph"/>
  <text x="358" y="612" class="box-title">same conversion</text>
  <text x="358" y="634" class="text">GraphEvent -> tensors</text>

  <rect x="670" y="586" width="150" height="64" class="box output"/>
  <text x="704" y="612" class="box-title">reconstruct-dst</text>
  <text x="704" y="634" class="text">no HDF5 output</text>

  <rect x="850" y="586" width="150" height="64" class="box output"/>
  <text x="912" y="612" class="box-title">CSV</text>
  <text x="885" y="634" class="text">reco output</text>

  <path d="M230 618 H330" class="flow"/>
  <path d="M500 618 H670" class="flow"/>
  <path d="M820 618 H850" class="flow"/>
  <path d="M925 416 V586" class="soft"/>
  <text x="940" y="505" class="tiny">checkpoint input</text>

  <text x="78" y="708" class="tiny">Boundary: dstio owns TALE graph construction. This repo owns HDF5 cache storage, GraphEvent-to-model conversion, training, diagnostics, and direct inference.</text>
  <text x="78" y="730" class="tiny">HDF5 is a training cache only; production direct reconstruction streams DST-derived GraphEvents into the checkpointed model.</text>
</svg>
