<svg xmlns="http://www.w3.org/2000/svg" width="1280" height="760" viewBox="0 0 1280 760" role="img" aria-labelledby="title desc">
  <title id="title">TALE-SD heterogeneous graph workflow</title>
  <desc id="desc">DST files are converted by dstio.tale.graph into a shared GraphEvent stream. The training lane writes an HDF5 cache, trains the hetero model, and produces a checkpoint. The direct reconstruction lane uses the same GraphEvent stream plus the checkpoint to write CSV output without creating HDF5.</desc>
  <defs>
    <marker id="arrow" markerWidth="12" markerHeight="12" refX="10" refY="6" orient="auto" markerUnits="strokeWidth">
      <path d="M2,2 L10,6 L2,10 Z" fill="#263238"/>
    </marker>
    <style>
      .title { font: 700 24px -apple-system, BlinkMacSystemFont, "Segoe UI", sans-serif; fill: #17212b; }
      .lane-title { font: 700 17px -apple-system, BlinkMacSystemFont, "Segoe UI", sans-serif; fill: #263238; }
      .label { font: 700 15px -apple-system, BlinkMacSystemFont, "Segoe UI", sans-serif; fill: #17212b; }
      .small { font: 13px -apple-system, BlinkMacSystemFont, "Segoe UI", sans-serif; fill: #263238; }
      .tiny { font: 12px -apple-system, BlinkMacSystemFont, "Segoe UI", sans-serif; fill: #455a64; }
      .band { stroke: #90a4ae; stroke-width: 1.2; rx: 10; ry: 10; }
      .shared { fill: #eef7f4; }
      .cache { fill: #fff3d6; }
      .direct { fill: #f5eef8; }
      .model { fill: #e9f1ff; }
      .box { stroke: #263238; stroke-width: 1.4; rx: 8; ry: 8; }
      .input-box { fill: #ffffff; stroke: #607d8b; stroke-width: 1.2; rx: 8; ry: 8; }
      .arrow { stroke: #263238; stroke-width: 1.8; fill: none; marker-end: url(#arrow); }
      .softarrow { stroke: #546e7a; stroke-width: 1.6; fill: none; marker-end: url(#arrow); }
      .split { fill: #263238; }
    </style>
  </defs>

  <rect x="0" y="0" width="1280" height="760" fill="#ffffff"/>
  <text x="40" y="42" class="title">Heterogeneous graph workflow: training cache and direct DST reconstruction</text>

  <rect x="50" y="74" width="1180" height="156" class="band shared" opacity="0.62"/>
  <text x="78" y="104" class="lane-title">Shared graph construction</text>

  <rect x="82" y="128" width="150" height="64" class="box shared"/>
  <text x="112" y="154" class="label">DST files</text>
  <text x="112" y="176" class="small">data / MC banks</text>

  <rect x="306" y="116" width="220" height="88" class="box shared"/>
  <text x="332" y="144" class="label">dstio.tale.graph</text>
  <text x="332" y="168" class="small">Ising annotations</text>
  <text x="332" y="188" class="small">all candidates kept</text>

  <rect x="604" y="116" width="280" height="88" class="box shared"/>
  <text x="630" y="144" class="label">GraphEvent stream</text>
  <text x="630" y="168" class="small">hetero detector / pulse graph</text>
  <text x="630" y="188" class="small">same schema for train and inference</text>

  <rect x="972" y="116" width="188" height="88" class="input-box"/>
  <text x="998" y="144" class="label">Graph definition</text>
  <text x="998" y="168" class="small">tale_sd_hetero_ising</text>
  <text x="998" y="188" class="small">pulse_detector_graph_v1</text>

  <path d="M232,160 L306,160" class="arrow"/>
  <path d="M526,160 L604,160" class="arrow"/>
  <path d="M884,160 L972,160" class="softarrow"/>

  <circle cx="744" cy="250" r="5" class="split"/>
  <path d="M744,204 L744,250" class="arrow"/>
  <text x="760" y="256" class="tiny">shared GraphEvent input</text>

  <rect x="50" y="292" width="1180" height="168" class="band cache" opacity="0.62"/>
  <text x="78" y="322" class="lane-title">HDF5 training cache path</text>

  <rect x="86" y="354" width="148" height="64" class="input-box"/>
  <text x="112" y="380" class="label">GraphEvent</text>
  <text x="112" y="402" class="small">stream input</text>

  <rect x="286" y="354" width="148" height="64" class="box cache"/>
  <text x="310" y="380" class="label">export-hetero</text>
  <text x="310" y="402" class="small">write cache</text>

  <rect x="486" y="354" width="148" height="64" class="box cache"/>
  <text x="514" y="380" class="label">HDF5 shards</text>
  <text x="514" y="402" class="small">training only</text>

  <rect x="686" y="354" width="148" height="64" class="box model"/>
  <text x="712" y="380" class="label">train-hetero</text>
  <text x="712" y="402" class="small">fit scalers</text>

  <rect x="886" y="354" width="170" height="64" class="box model"/>
  <text x="914" y="380" class="label">checkpoint</text>
  <text x="914" y="402" class="small">model + scalers</text>

  <path d="M744,250 L744,276 L64,276 L64,386 L86,386" class="softarrow"/>
  <path d="M234,386 L286,386" class="arrow"/>
  <path d="M434,386 L486,386" class="arrow"/>
  <path d="M634,386 L686,386" class="arrow"/>
  <path d="M834,386 L886,386" class="arrow"/>

  <rect x="50" y="514" width="1180" height="152" class="band direct" opacity="0.62"/>
  <text x="78" y="544" class="lane-title">Direct DST reconstruction path</text>

  <rect x="86" y="574" width="148" height="64" class="input-box"/>
  <text x="112" y="600" class="label">GraphEvent</text>
  <text x="112" y="622" class="small">stream input</text>

  <rect x="686" y="574" width="170" height="64" class="box direct"/>
  <text x="714" y="600" class="label">reconstruct-dst</text>
  <text x="714" y="622" class="small">no HDF5 output</text>

  <rect x="936" y="574" width="130" height="64" class="box direct"/>
  <text x="972" y="600" class="label">CSV</text>
  <text x="960" y="622" class="small">reco output</text>

  <path d="M64,276 L64,606 L86,606" class="softarrow"/>
  <path d="M234,606 L686,606" class="arrow"/>
  <path d="M971,418 L971,486 L771,486 L771,574" class="softarrow"/>
  <text x="984" y="492" class="tiny">checkpoint input</text>
  <path d="M856,606 L936,606" class="arrow"/>

  <text x="78" y="704" class="tiny">Boundary: dstio owns TALE graph construction. This repo owns cache storage, GraphEvent-to-model conversion, training, diagnostics, and direct inference.</text>
  <text x="78" y="726" class="tiny">HDF5 is a training cache only; direct reconstruction streams DST-derived GraphEvents into the checkpointed model.</text>
</svg>
